<?xml version="1.0" encoding="utf-8"?>
<!-- Generator: Adobe Illustrator 21.0.0, SVG Export Plug-In . SVG Version: 6.00 Build 0)  -->
<svg version="1.1" id="Слой_1" xmlns="http://www.w3.org/2000/svg" xmlns:xlink="http://www.w3.org/1999/xlink" x="0px" y="0px"
	 viewBox="0 0 799.3 537.8" style="enable-background:new 0 0 799.3 537.8;" xml:space="preserve">
<g>
	<polygon points="672.3,182.1 700.5,165.8 699.3,163.7 671.1,180 	"/>
	<rect x="629.1" y="100" transform="matrix(0.8658 -0.5004 0.5004 0.8658 36.8523 339.7929)" width="45.6" height="2.4"/>
	<polygon points="670.5,229.2 672.9,229.2 672.9,193.7 705.7,174.8 704.4,172.7 671.7,191.6 638.9,172.7 637.7,174.8 670.5,193.7 	
		"/>
	<rect x="680.8" y="371.8" width="2.4" height="45.6"/>
	<rect x="718.5" y="427.6" transform="matrix(0.8654 -0.501 0.501 0.8654 -115.0948 429.1434)" width="45.6" height="2.4"/>
	<rect x="740.1" y="337.6" transform="matrix(0.5004 -0.8658 0.8658 0.5004 58.3224 821.8555)" width="2.4" height="45.6"/>
	<polygon points="573.1,191 573,191 571.9,191.6 570.8,191 570.8,191 528.4,166.5 528.4,127.6 526,127.6 526,165.1 522.7,163.2 
		522.1,162.8 521.4,163.2 521.4,163.2 521.4,163.2 519.7,164.2 519.7,164.2 518,165.1 518,127.6 515.7,127.6 515.7,166.5 
		488.1,182.4 489.3,184.5 522,165.6 523.2,166.2 523.2,166.2 571.3,194 571.3,194 571.9,194.4 572.5,194 572.5,194 605.9,174.8 
		604.7,172.7 	"/>
	<path d="M422.9,163.2l-0.6-0.3l-0.6,0.3l0,0l0,0l-1.7,1l0,0l-47.5,27.4l-47.6-27.4l0,0l-2.4-1.3l-0.8,0.5l-49.6,28.6l-0.7,0.4v0.7
		v2v54.9L222.7,278l-47.5-27.4l0,0l-2.4-1.3l-0.8,0.5l-47.9,27.7l0,0l-2.3,1.3v0.7v2v54.9l-48.2,27.9l-21.9-37.9l-2.1,1.2l21.9,37.9
		l-35,20.2l1.2,2.1l35-20.2l16.4,28.5l2.1-1.2l-16.4-28.5l48.2-27.9l49.2,28.4l0.6,0.4l0.6-0.3l0,0l0.1-0.1l1.7-0.9l0,0l46.4-26.8
		l0,0l2.3-1.3V337v-2v-54.9l48.7-28.1l49.2,28.4l0.6,0.4l0.6-0.3l0,0l0.1-0.1l1.7-0.9l0,0l48.1-27.7l0.7-0.4v-0.7v-2v-54.9
		l48.7-28.1l1.1,0.6l0,0l31.6,18.3l1.2-2.1L422.9,163.2L422.9,163.2z M221.5,336.3l-48.7,28.1l-1.1-0.7l0,0l-47.6-27.5v-54.9v-1.3
		l47.6-27.5l0,0l1.1-0.6l48.7,28.1V335V336.3z M371.2,249.9l-1.2,0.7l0,0L322.5,278l-1.1-0.7l0,0l-47.6-27.5V195v-1.3l1.2-0.7l0,0
		l46.4-26.8l0,0l1.1-0.6l48.7,28.1v54.9V249.9z"/>
	<polygon points="473.4,249.9 473.4,248.6 473.4,213.2 471,213.2 471,248.6 471,250.6 471,251.3 471.6,251.6 471.6,251.6 472,251.9 
		473.3,252.6 473.3,252.6 519.7,279.4 519.7,279.5 520.8,280.1 520.8,281.4 520.8,315.8 523.2,315.8 523.2,281.4 523.2,279.4 
		523.2,278.7 522.7,278.4 522.7,278.4 	"/>
	<polygon points="572.5,364.8 572.3,364.7 570.8,363.8 570.8,363.8 539.2,345.5 538,347.6 570.7,366.5 570.7,367.8 570.7,423.4 
		573.1,423.4 573.1,367.8 573.1,365.8 573.1,365.1 572.5,364.8 	"/>
	<polygon points="504.9,345.5 473.3,363.8 473.3,363.8 471,365.1 471,365.8 471,367.8 471,423.4 473.4,423.4 473.4,367.8 
		473.4,366.5 506.1,347.6 	"/>
	<rect x="319.4" y="254.8" transform="matrix(0.8661 -0.4998 0.4998 0.8661 -82.1512 205.3366)" width="45.6" height="2.4"/>
	<rect x="281.8" y="199" width="2.4" height="45.6"/>
	<rect x="341.1" y="164.8" transform="matrix(0.5004 -0.8658 0.8658 0.5004 8.5797 390.0444)" width="2.4" height="45.6"/>
	<rect x="169.8" y="341.2" transform="matrix(0.8661 -0.4998 0.4998 0.8661 -145.3676 142.1106)" width="45.6" height="2.4"/>
	<rect x="132.1" y="285.4" width="2.4" height="45.6"/>
	<rect x="191.4" y="251.2" transform="matrix(0.5004 -0.8658 0.8658 0.5004 -140.9883 303.6601)" width="2.4" height="45.6"/>
	<polygon points="728.9,171.8 714.5,149.4 710.6,149.4 710.6,178 714.2,178 714.2,155.7 714.3,155.7 728.7,178 732.5,178 
		732.5,149.4 729,149.4 729,171.8 	"/>
	<polygon points="629.2,171.8 629.1,171.8 614.7,149.4 610.9,149.4 610.9,178 614.4,178 614.4,155.7 614.5,155.7 628.9,178 
		632.8,178 632.8,149.4 629.2,149.4 	"/>
	<path d="M783.4,69.7c-1.8-3.3-4.9-5.2-4.9-5.2c-3.1-1.8-7-1.8-7-1.8c-3.9,0-7,1.8-7,1.8c-3.1,1.8-4.9,5.2-4.9,5.2
		c-1.8,3.4-1.8,7.8-1.8,7.8c0,4.3,1.8,7.7,1.8,7.7c1.8,3.4,4.9,5.2,4.9,5.2c3.1,1.8,7,1.8,7,1.8c3.9,0,7-1.8,7-1.8
		c3.1-1.8,4.9-5.2,4.9-5.2c1.8-3.4,1.8-7.8,1.8-7.8C785.2,73.1,783.4,69.7,783.4,69.7z M780,83.8c-1.2,2.6-3.4,4-3.4,4
		c-2.2,1.4-5.1,1.4-5.1,1.4c-2.8,0-5-1.4-5-1.4c-2.2-1.4-3.5-4-3.5-4c-1.2-2.6-1.2-6.1-1.2-6.1c0-3.6,1.2-6.3,1.2-6.3
		c1.2-2.6,3.4-4,3.4-4c2.2-1.4,5.1-1.4,5.1-1.4c2.9,0,5.1,1.4,5.1,1.4c2.2,1.4,3.4,4,3.4,4c1.2,2.6,1.2,6.2,1.2,6.2
		C781.3,81.2,780,83.8,780,83.8z"/>
	<path d="M578.2,68.9L578.2,68.9L578.2,68.9l1.5,1.4l0,0l40.9,36.9V143h2.4v-35.7l48.7-28.1l48.7,28.1v1.3V143h2.4v-29.7l34.2-19.7
		l-1.2-2.1l-33,19v-1.9v-2v-0.7l-0.6-0.3l0,0l-0.4-0.2l-1.3-0.8l0,0l-1.7-1l33-19l-1.2-2.1l-34.2,19.7L672.8,77l-11.8-55.8l0,0
		l-0.2-0.9l-0.9-0.1l0,0l-55.3-5.8l0,0l-2.8-0.3l-0.4,0.8l0,0l-0.1,0.2l-0.7,1.6l0,0l-21.8,49l0,0l-0.3,0.8l-0.5,1l0,0l-0.3,0.8
		L578.2,68.9z M658.7,22.6l0.2,1.1l0,0l11.4,53.6L622,105.1l-41.5-37.4l22.7-51l54.4,5.7l0,0L658.7,22.6z"/>
	<path d="M677.8,264c2.4-1.1,3.7-3.1,3.7-3.1c1.3-2,1.3-4.4,1.3-4.4c0-2.4-1-4-1-4c-1-1.6-3.3-2.7-3.3-2.7c-2.2-1.1-6.1-2-6.1-2
		c-2.8-0.6-4.3-1.1-4.3-1.1c-1.5-0.6-2.2-1.4-2.2-1.4c-0.7-0.8-0.7-2.2-0.7-2.2c0-1.4,0.8-2.4,0.8-2.4c0.8-1,2.2-1.5,2.2-1.5
		c1.4-0.6,3.3-0.6,3.3-0.6c2.8,0,4.5,1.4,4.5,1.4c1.6,1.3,2.3,4.4,2.3,4.4h0.1l3.6-0.8c-0.3-2.6-1.7-4.4-1.7-4.4
		c-1.4-1.8-3.6-2.8-3.6-2.8c-2.2-1-5.2-1-5.2-1c-2.8,0-5,1-5,1c-2.3,1-3.6,2.8-3.6,2.8c-1.3,1.7-1.3,3.9-1.3,3.9
		c0,2,0.7,3.4,0.7,3.4c0.6,1.4,2.3,2.6,2.3,2.6c1.7,1.1,4.6,1.9,4.6,1.9c0.7,0.2,2.3,0.6,2.3,0.6c2.8,0.6,4.2,1.1,4.2,1.1
		c1.7,0.6,2.6,1.6,2.6,1.6c0.9,1,0.9,2.8,0.9,2.8c0,1.4-0.9,2.4-0.9,2.4c-0.9,1.1-2.5,1.7-2.5,1.7c-1.6,0.6-3.4,0.6-3.4,0.6
		c-3.6,0-5.6-1.8-5.6-1.8c-2-1.8-2.4-5.3-2.4-5.3l-3.7,0.9c0.7,4.6,3.7,7,3.7,7c3.1,2.4,8.2,2.4,8.2,2.4
		C675.5,265.2,677.8,264,677.8,264z"/>
	<path d="M770.3,363.8l-47.6-27.5v-54.9v-2v-0.7l-0.6-0.3l0,0l-0.2-0.1l-1.5-0.9l0,0L689,259.2l-1.2,2.1l32.6,18.8v1.3v54.9
		l-47.6,27.5l0,0l-1.6,0.9l-0.2,0.1l0,0l-0.6,0.3v0.7v2v53.6v2v0.7l0.6,0.3l0,0l0.2,0.1l1.6,0.9l0,0l47.6,27.5v35.7h2.4v-35.7
		l47.6-27.5l0,0l2.3-1.3v-0.7v-2v-53.6v-2v-0.7L770.3,363.8L770.3,363.8z M770.3,421.4v1.3l-48.7,28.1l-48.7-28.1v-1.3v-53.6v-1.3
		l48.7-28.1l48.7,28.1v1.3V421.4z"/>
	<polygon points="712.5,523.6 716.3,523.6 716.3,510.7 729.2,510.7 729.2,507.3 716.3,507.3 716.3,498.4 730.6,498.4 730.6,495 
		712.5,495 	"/>
	<polygon points="483.1,206.8 483.1,178.2 479.5,178.2 479.5,200.6 479.5,200.6 465.1,178.2 461.2,178.2 461.2,206.8 464.8,206.8 
		464.8,184.5 464.9,184.5 479.3,206.8 	"/>
	<path d="M515,119.3c3.1,1.8,7.1,1.8,7.1,1.8c3.9,0,7-1.8,7-1.8c3.1-1.8,4.9-5.2,4.9-5.2c1.8-3.4,1.8-7.8,1.8-7.8
		c0-4.5-1.8-7.8-1.8-7.8c-1.8-3.3-4.9-5.2-4.9-5.2c-3.1-1.8-7-1.8-7-1.8c-3.9,0-7.1,1.8-7.1,1.8c-3.1,1.8-4.9,5.2-4.9,5.2
		c-1.8,3.4-1.8,7.8-1.8,7.8c0,4.3,1.8,7.7,1.8,7.7C511.9,117.4,515,119.3,515,119.3z M513.5,100.2c1.2-2.6,3.4-4,3.4-4
		c2.2-1.4,5.1-1.4,5.1-1.4c2.9,0,5.1,1.4,5.1,1.4c2.2,1.4,3.4,4,3.4,4c1.2,2.6,1.2,6.2,1.2,6.2c0,3.6-1.2,6.2-1.2,6.2
		c-1.2,2.6-3.5,4-3.5,4c-2.2,1.4-5,1.4-5,1.4c-2.8,0-5.1-1.4-5.1-1.4c-2.2-1.4-3.4-4-3.4-4c-1.3-2.6-1.3-6.1-1.3-6.1
		C512.3,102.9,513.5,100.2,513.5,100.2z"/>
	<polygon points="529.4,344.6 529.3,344.6 515,322.2 511.1,322.2 511.1,350.8 514.7,350.8 514.7,328.5 514.7,328.5 529.1,350.8 
		533,350.8 533,322.2 529.4,322.2 	"/>
	<polygon points="92.9,429.5 96.7,429.5 96.7,416.6 109.5,416.6 109.5,413.2 96.7,413.2 96.7,404.3 110.9,404.3 110.9,400.9 
		92.9,400.9 	"/>
	<polygon points="39,316.8 51.9,316.8 51.9,313.4 39,313.4 39,304.5 53.3,304.5 53.3,301.1 35.3,301.1 35.3,329.8 39,329.8 	"/>
	<polygon points="14.2,408.4 17.9,408.4 17.9,395.5 30.8,395.5 30.8,392.1 17.9,392.1 17.9,383.2 32.3,383.2 32.3,379.8 14.2,379.8 
			"/>
</g>
</svg>
